<svg width="90" height="87" viewBox="0 0 90 87" fill="none" xmlns="http://www.w3.org/2000/svg">
<rect width="90" height="86.1207" rx="25" fill="#15243A"/>
<g clip-path="url(#clip0_28_7)">
<path d="M47 76C64.6731 76 79 61.6731 79 44C79 26.3269 64.6731 12 47 12C29.3269 12 15 26.3269 15 44C15 61.6731 29.3269 76 47 76Z" fill="#24BECA"/>
<path d="M60.6 55.1C58.9 57.4 56.7 59.8 53.8 61.6C51 63.4 47.8 64.8 44 64.8C40.5 64.8 37.6 63 36 61.5C33.6 59.2 32.3 55.9 31.9 52.8C30.7 43.2 36.6 30.5 45.7 25C47.8 23.7 50.1 23.1 52.3 23.1C56.7 23.1 60 26.2 60.4 30C60.8 33.4 59.5 36.3 55.7 38.2C53.8 39.2 52.8 39.1 52.5 38.7C52.3 38.4 52.4 37.9 52.8 37.6C56.3 34.7 56.4 32.3 56 28.9C55.7 26.7 54.3 25.3 52.7 25.3C45.8 25.3 35.8 40.8 37.2 52C37.7 56.4 40.4 61.5 46 61.5C47.8 61.5 49.8 61 51.5 60.1C55.4 58.1 57.1 56.7 59.4 53.5C59.7 53.1 60 52.6 60.3 52.2C60.5 51.8 60.9 51.7 61.2 51.7C61.5 51.7 61.9 52 61.9 52.5C61.9 52.8 61.8 53.4 61.4 53.9C61.3 54.1 61 54.7 60.6 55.1Z" fill="white"/>
</g>
<defs>
<clipPath id="clip0_28_7">
<rect width="64" height="64" fill="white" transform="translate(15 12)"/>
</clipPath>
</defs>
</svg>
