<svg width="90" height="87" viewBox="0 0 90 87" fill="none" xmlns="http://www.w3.org/2000/svg">
<rect width="90" height="86.1207" rx="25" fill="#15243A"/>
<g clip-path="url(#clip0_28_3)">
<path d="M18.5264 74.1432L13 7.12579L79 7.26047L73.1563 74.1432L46.2491 81.8742L18.5264 74.1432Z" fill="#1B73BA"/>
<path d="M46.2491 75.4018V13.5084L73.4283 13.5982L68.5816 68.9742L46.2491 75.4018Z" fill="#1C88C7"/>
<path d="M66.6788 21.4196H24.8683L26.0009 29.5097H45.8414L26.3182 37.8253L27.4503 45.6461H56.2151L55.1729 56.5681L45.4337 58.4563L36.6009 56.209L35.9212 50.0059H27.8127L28.8996 62.9064L46.2943 67.7157L62.9647 62.457L65.0937 37.2407H47.4717L66.6782 29.3301L66.6788 21.4196Z" fill="white"/>
</g>
<defs>
<clipPath id="clip0_28_3">
<rect width="66" height="75" fill="white" transform="translate(13 7)"/>
</clipPath>
</defs>
</svg>
