<svg width="90" height="87" viewBox="0 0 90 87" fill="none" xmlns="http://www.w3.org/2000/svg">
<rect width="90" height="86.1207" rx="25" fill="#15243A"/>
<g clip-path="url(#clip0_28_5)">
<path d="M31.7981 30.3688H28.1533L38.0899 58.457L43.6527 42.5605L39.3398 30.3688H35.4943V27.6923H52.5235V30.3688H48.5357L58.4721 58.457L62.0438 48.25C66.7292 35.1727 58.2036 31.0991 58.2036 28.1806C58.2036 25.2621 60.5695 22.8963 63.4879 22.8963C63.6458 22.8963 63.7991 22.9049 63.9493 22.9189C59.0044 18.2509 52.3367 15.3882 44.9997 15.3882C35.4129 15.3882 26.9683 20.2749 22.0179 27.6923H31.7978V30.3688H31.7981Z" fill="#00769D"/>
<path d="M17.3882 43C17.3882 53.5712 23.3299 62.7534 32.0549 67.3933L19.5942 32.1697C18.1748 35.4951 17.3882 39.1556 17.3882 43Z" fill="#00769D"/>
<path d="M69.0303 29.3938C69.4252 31.7193 69.3057 34.3331 68.6996 36.957H68.8094L68.3919 38.15C68.1445 39.0115 67.833 39.8926 67.4792 40.7585L57.9783 67.3754C66.685 62.7299 72.6115 53.5577 72.6115 42.9998C72.6115 38.0526 71.3091 33.4099 69.0303 29.3938Z" fill="#00769D"/>
<path d="M36.4843 69.2712C39.1667 70.1402 42.028 70.6115 45 70.6115C47.8348 70.6115 50.5694 70.1837 53.1438 69.3901L45.0671 46.559L36.4843 69.2712Z" fill="#00769D"/>
<path d="M68.3344 19.6654C62.1016 13.4326 53.8145 10 44.9999 10C36.1852 10 27.8983 13.4326 21.6654 19.6654C15.4326 25.8983 12 34.1852 12 43C12 51.8146 15.4326 60.1016 21.6654 66.3344C27.8983 72.5673 36.1854 75.9999 45 75.9999C53.8146 75.9999 62.1016 72.5673 68.3346 66.3344C74.5674 60.1016 78 51.8145 78 43C77.9999 34.1852 74.5673 25.8983 68.3344 19.6654ZM44.9999 73.672C28.0873 73.672 14.3279 59.9126 14.3279 43C14.3279 26.0874 28.0873 12.3279 44.9999 12.3279C61.9124 12.3279 75.6718 26.0874 75.6718 43C75.6718 59.9126 61.9126 73.672 44.9999 73.672Z" fill="#00769D"/>
</g>
<defs>
<clipPath id="clip0_28_5">
<rect width="66" height="66" fill="white" transform="translate(12 10)"/>
</clipPath>
</defs>
</svg>
