<svg width="90" height="87" viewBox="0 0 90 87" fill="none" xmlns="http://www.w3.org/2000/svg">
<rect width="90" height="86.1207" rx="25" fill="#15243A"/>
<g clip-path="url(#clip0_28_6)">
<path d="M32.2522 78.4865C38.461 78.4865 43.5 73.4475 43.5 67.2388V55.991H32.2522C26.0435 55.991 21.0045 61.03 21.0045 67.2388C21.0045 73.4475 26.0435 78.4865 32.2522 78.4865Z" fill="#0ACF83"/>
<path d="M21.0045 44.7432C21.0045 38.5345 26.0435 33.4955 32.2522 33.4955H43.5V55.991H32.2522C26.0435 55.991 21.0045 50.952 21.0045 44.7432Z" fill="#A259FF"/>
<path d="M21.0045 22.2478C21.0045 16.039 26.0435 11 32.2522 11H43.5V33.4955H32.2522C26.0435 33.4955 21.0045 28.4565 21.0045 22.2478Z" fill="#F24E1E"/>
<path d="M43.5 11H54.7478C60.9565 11 65.9955 16.039 65.9955 22.2478C65.9955 28.4565 60.9565 33.4955 54.7478 33.4955H43.5V11Z" fill="#FF7262"/>
<path d="M65.9955 44.7432C65.9955 50.952 60.9565 55.991 54.7478 55.991C48.539 55.991 43.5 50.952 43.5 44.7432C43.5 38.5345 48.539 33.4955 54.7478 33.4955C60.9565 33.4955 65.9955 38.5345 65.9955 44.7432Z" fill="#1ABCFE"/>
</g>
<defs>
<clipPath id="clip0_28_6">
<rect width="45" height="67.4865" fill="white" transform="translate(21 11)"/>
</clipPath>
</defs>
</svg>
