<svg width="90" height="87" viewBox="0 0 90 87" fill="none" xmlns="http://www.w3.org/2000/svg">
<rect width="90" height="86.1207" rx="25" fill="#15243A"/>
<g clip-path="url(#clip0_28_2)">
<path d="M78 10H12V76H78V10Z" fill="#F7DF1E"/>
<path d="M29.3585 65.1512L34.4039 62.0949C35.3797 63.8312 36.2666 65.2776 38.382 65.2776C40.4251 65.2776 41.709 64.4822 41.709 61.3717V40.3058H47.9107V61.48C47.9107 67.8995 44.1492 70.8283 38.6527 70.8283C33.6988 70.8283 30.8242 68.2605 29.3585 65.1512Z" fill="black"/>
<path d="M51.2932 64.4822L56.3386 61.5535C57.6766 63.723 59.395 65.315 62.45 65.315C65.0179 65.315 66.6627 64.0311 66.6627 62.2586C66.6627 60.1252 64.9805 59.384 62.142 58.1362L60.5874 57.4671C56.1208 55.5684 53.1379 53.163 53.1379 48.1189C53.1379 43.4718 56.6815 39.9282 62.2154 39.9282C66.1574 39.9282 68.9959 41.3023 71.0391 44.8833L66.2115 47.9758C65.1442 46.077 64.0059 45.3177 62.2335 45.3177C60.4249 45.3177 59.2686 46.4753 59.2686 47.9758C59.2686 49.8385 60.4262 50.5977 63.0843 51.7373L64.6389 52.4063C69.9189 54.666 72.8837 56.9631 72.8837 62.1529C72.8837 67.7397 68.4893 70.7961 62.6125 70.7961C56.8259 70.8283 53.1005 68.08 51.2932 64.4822Z" fill="black"/>
</g>
<defs>
<clipPath id="clip0_28_2">
<rect width="66" height="66" fill="white" transform="translate(12 10)"/>
</clipPath>
</defs>
</svg>
