<svg width="90" height="87" viewBox="0 0 90 87" fill="none" xmlns="http://www.w3.org/2000/svg">
<rect width="90" height="86.1207" rx="25" fill="#15243A"/>
<path d="M43 72.1484C59.3744 72.1484 72.6484 58.8744 72.6484 42.5C72.6484 26.1256 59.3744 12.8516 43 12.8516C26.6256 12.8516 13.3516 26.1256 13.3516 42.5C13.3516 58.8744 26.6256 72.1484 43 72.1484Z" fill="#18162F"/>
<path d="M43 70.6016C58.5201 70.6016 71.1016 58.0201 71.1016 42.5C71.1016 26.9799 58.5201 14.3984 43 14.3984C27.4799 14.3984 14.8984 26.9799 14.8984 42.5C14.8984 58.0201 27.4799 70.6016 43 70.6016Z" fill="#18162F"/>
<path d="M29.0034 28.6709C31.0533 28.3394 33.1272 28.179 35.2037 28.1914C38.3968 28.1914 40.7351 28.9339 42.2201 30.2707C43.5943 31.4592 44.4115 33.278 44.4115 35.5055C44.4115 37.7704 43.7438 39.5519 42.4779 40.8513C40.7699 42.6702 37.9855 43.5983 34.8299 43.5983C33.8644 43.5983 32.9737 43.5609 32.2312 43.3753V53.399H29.0034V28.6709ZM32.2337 40.7366C32.9389 40.9222 33.8296 40.9944 34.9073 40.9944C38.8054 40.9944 41.1811 39.1007 41.1811 35.6486C41.1811 32.3448 38.8428 30.7502 35.2785 30.7502C33.8683 30.7502 32.7906 30.8611 32.2337 31.008V40.734V40.7366Z" fill="#57C9EC"/>
<path d="M47.3828 50.0552C48.3483 50.6869 50.0563 51.3546 51.6896 51.3546C54.0653 51.3546 55.1791 50.1661 55.1791 48.6811C55.1791 47.1213 54.2509 46.268 51.8378 45.3772C48.6074 44.2261 47.0863 42.4446 47.0863 40.2906C47.0863 37.3953 49.4247 35.0196 53.2854 35.0196C55.1043 35.0196 56.7015 35.5352 57.7031 36.1333L56.8845 38.5039C55.7788 37.826 54.5064 37.469 53.2094 37.4727C51.2758 37.4727 50.202 38.5864 50.202 39.9219C50.202 41.4069 51.2784 42.0746 53.618 42.9667C56.7363 44.1552 58.3334 45.7137 58.3334 48.3807C58.3334 51.5363 55.8842 53.7639 51.6135 53.7639C49.6464 53.7639 47.8263 53.2817 46.5643 52.5392L47.3828 50.0552Z" fill="#57C9EC"/>
</svg>
