<svg width="90" height="87" viewBox="0 0 90 87" fill="none" xmlns="http://www.w3.org/2000/svg">
<rect width="90" height="86.1207" rx="25" fill="#15243A"/>
<g clip-path="url(#clip0_28_4)">
<path d="M34.393 61.6385C34.92 61.4039 35.4539 61.1881 35.9928 60.9857C36.6012 60.757 37.2145 60.542 37.8361 60.3549C38.6098 60.1218 39.3899 59.9109 40.1807 59.7431C41.2476 59.5161 42.3264 59.3494 43.4121 59.2437C42.7984 61.1684 42.1271 63.0744 41.3991 64.9589C41.4291 65.3267 41.4483 65.6954 41.4568 66.0644C42.9531 65.7685 44.4747 65.6194 46 65.6191C47.5549 65.6191 49.0731 65.7743 50.5432 66.0644C50.5517 65.6954 50.5709 65.3267 50.6009 64.9589C49.8728 63.0744 49.2015 61.1685 48.5879 59.2437C49.6746 59.3491 50.7533 59.5167 51.8193 59.7431C52.6098 59.9109 53.3899 60.1218 54.1636 60.3549C54.7855 60.542 55.3988 60.757 56.0072 60.9857C56.5463 61.1884 57.0805 61.4042 57.6075 61.6388C61.4169 63.3324 64.8106 65.8375 67.5513 68.9789C74.5587 62.9278 79 53.9853 79 44C79 25.7747 64.2253 11 46 11C27.7747 11 13 25.7747 13 44C13 53.9853 17.4413 62.9276 24.4487 68.9789C27.1896 65.8374 30.5834 63.3323 34.393 61.6385Z" fill="#A5DBE8"/>
<path d="M57.6075 61.6387L59.6561 68.6829L60.2372 68.7103C60.6144 68.7103 60.8797 68.8095 60.8797 69.1867C60.8797 69.8137 60.9122 70.5183 60.9722 71.1334C61.4827 71.5668 62.1043 72.0556 62.5756 72.5305C64.3402 71.5028 66.0059 70.3138 67.5514 68.9789C64.8106 65.8375 61.417 63.3324 57.6075 61.6387ZM53.6019 61.5683L56.0073 60.9857C55.3988 60.757 54.7855 60.542 54.1637 60.3548C53.39 60.1218 52.6098 59.9109 51.8194 59.743C50.7525 59.5161 49.6736 59.3494 48.588 59.2437C49.2015 61.1685 49.8728 63.0744 50.601 64.9588C50.5709 65.3267 50.5517 65.6954 50.5432 66.0643C52.2476 66.4005 53.9234 66.9847 55.4728 67.67L53.6019 61.5683Z" fill="#525353"/>
<path d="M29.4244 72.5306C29.8075 72.7538 30.1945 72.9717 30.5879 73.1798C30.7256 72.5185 30.9458 71.6022 31.0123 70.9218C30.5018 71.3552 29.8957 72.0557 29.4244 72.5306ZM55.4326 67.6092C53.865 66.9148 52.2251 66.3967 50.5431 66.0644C49.0468 65.7686 47.5252 65.6194 46 65.6191C44.4449 65.6191 42.9269 65.7743 41.4568 66.0644C39.7527 66.4003 37.9745 66.91 36.4256 67.595L36.2609 68.6214H55.7396L55.4326 67.6092Z" fill="black"/>
<path d="M30.952 71.1172C31.0123 70.5021 31.0559 69.9537 31.0559 69.3265C31.0559 68.9495 31.3145 68.708 31.6917 68.708L32.3101 68.6863L34.393 61.6385C30.5834 63.3322 27.1896 65.8374 24.4487 68.9789C25.9941 70.3139 27.6598 71.5028 29.4245 72.5306C29.8957 72.0552 30.387 71.6002 30.8971 71.1667" fill="#525353"/>
<path d="M61.2241 72.371C61.3577 73.0413 61.3878 73.1749 61.412 73.1798C61.8043 72.9713 62.1922 72.7549 62.5756 72.5306C62.0992 72.0501 61.6027 71.59 61.0875 71.1516L61.2241 72.371Z" fill="black"/>
<path d="M55.4326 67.6092L55.7397 68.6214H59.7239L57.6075 61.6388C57.0807 61.4053 56.547 61.1875 56.0073 60.9857L53.6019 61.5684L55.4326 67.6092Z" fill="#AA9678"/>
<path d="M32.346 70.0316C32.3669 70.0169 32.388 70.0022 32.4087 69.9872H32.3488C32.3483 70.0019 32.3468 70.0169 32.346 70.0316Z" fill="#C4B6A1"/>
<path d="M59.6512 69.9872H59.5911L59.6538 70.0316C59.6533 70.0169 59.6517 70.0019 59.6512 69.9872Z" fill="#AA9678"/>
<path d="M59.5826 69.8854L45.9716 69.9008L46 77C51.0655 77 55.8629 75.8555 60.1521 73.8157C59.8721 72.5854 59.844 71.2603 59.7984 69.9707C59.7777 69.9558 59.5826 69.8854 59.5826 69.8854Z" fill="#AA9678"/>
<path d="M45.9781 69.9303C45.9781 69.9303 32.2921 69.913 32.2712 69.9277C32.2259 71.2175 31.9598 72.7479 31.8479 73.8157C36.1371 75.8556 40.9345 77 46 77L46.0077 69.9532L45.9781 69.9303Z" fill="#C4B6A1"/>
<path d="M46 69.3043H46.0003V69.9873H46V69.3043Z" fill="#786453"/>
<path d="M67.5825 43.7858C67.5836 43.7945 67.5861 43.8023 67.5872 43.811C67.5879 43.8164 67.5895 43.8213 67.5903 43.8265V43.8286C67.606 43.9546 67.6119 44.0864 67.6148 44.2191C67.6153 44.2436 67.6194 44.2666 67.6194 44.2908L67.6196 44.2998L67.6194 44.3096C67.6191 44.3359 67.6147 44.3604 67.6145 44.3865C67.6127 44.5145 67.6047 44.6423 67.5905 44.7696V44.7714L67.5869 44.7902C67.5859 44.8003 67.5828 44.8093 67.5815 44.8191C67.5642 44.9506 67.5395 45.081 67.5075 45.2097L67.507 45.2115L67.5116 45.2066L67.5134 45.2006V45.2009L68.3771 44.2967L67.5065 43.3854L67.5067 43.3872C67.5392 43.5143 67.564 43.6478 67.5825 43.7858Z" fill="#676A6A"/>
<path d="M67.5815 44.8191C67.5838 44.802 67.5882 44.7868 67.5905 44.7696C67.6057 44.6458 67.6114 44.5166 67.6145 44.3864C67.6147 44.3571 67.6194 44.3295 67.6194 44.2998C67.6194 44.2722 67.6153 44.2465 67.6147 44.2191C67.6132 44.0886 67.605 43.9582 67.5903 43.8285C67.5882 43.8136 67.5843 43.8004 67.5825 43.7857C67.565 43.6515 67.5397 43.5184 67.5067 43.3872C67.4954 43.3428 67.4797 43.3034 67.4665 43.2606C67.3884 43.0023 67.2819 42.7741 67.1556 42.5846C67.1072 42.5126 67.0544 42.4437 66.9973 42.3783C66.9451 42.3206 66.888 42.2676 66.8266 42.2198C66.8039 42.2025 66.7799 42.1904 66.7567 42.1754C66.6856 42.1287 66.6086 42.0915 66.5278 42.0648C66.4515 42.0395 66.3718 42.0257 66.2914 42.0241C66.2104 42.0241 66.1321 42.0411 66.055 42.0648C65.974 42.0914 65.8969 42.1286 65.8258 42.1754C65.8031 42.1904 65.7789 42.2023 65.7564 42.2195C65.6503 42.3023 65.5569 42.4004 65.4795 42.5106C65.4615 42.5349 65.444 42.5596 65.4272 42.5849C65.3009 42.7743 65.1941 43.0025 65.1163 43.2608L65.1065 43.2918C65.0719 43.4104 65.0451 43.5351 65.0227 43.6633C65.016 43.7025 65.007 43.7401 65.0016 43.7803C64.9809 43.9237 64.9704 44.0732 64.9678 44.2263C64.9675 44.2475 64.9642 44.2676 64.9642 44.2887H64.9693C64.9693 45.5458 65.5641 46.5647 66.2976 46.5647C66.4239 46.5647 66.5453 46.5317 66.6611 46.4752C66.7305 46.4412 66.796 46.3998 66.8565 46.3517C66.8815 46.3316 66.905 46.3074 66.929 46.2847C66.9875 46.2301 67.0432 46.1682 67.096 46.0994C67.1326 46.0511 67.1687 46.0029 67.2022 45.949C67.2236 45.9148 67.2432 45.8776 67.2631 45.841C67.3002 45.7724 67.3353 45.701 67.367 45.6252C67.3788 45.5979 67.391 45.5713 67.4018 45.5432C67.4423 45.4378 67.4776 45.3264 67.5075 45.2096C67.5392 45.0851 67.5629 44.9541 67.5815 44.8191ZM66.3391 43.9969C66.064 43.9969 65.841 43.6146 65.841 43.1433C65.841 42.6723 66.064 42.2899 66.3391 42.2899C66.6142 42.2899 66.8369 42.6723 66.8369 43.1433C66.8369 43.6146 66.6142 43.9969 66.3391 43.9969Z" fill="black"/>
<path d="M66.3391 42.2899C66.064 42.2899 65.841 42.6723 65.841 43.1433C65.841 43.6146 66.064 43.9969 66.3391 43.9969C66.6142 43.9969 66.8369 43.6146 66.8369 43.1433C66.8369 42.6723 66.6142 42.2899 66.3391 42.2899Z" fill="white"/>
<path d="M65.1163 43.2609C65.1941 43.0025 65.3009 42.7744 65.4272 42.5849C65.4442 42.5591 65.4615 42.5351 65.4795 42.5106C65.5567 42.4003 65.6501 42.3022 65.7564 42.2196C65.7789 42.2023 65.8031 42.1904 65.8258 42.1755C65.8969 42.1285 65.974 42.0913 66.055 42.0649C66.1318 42.0407 66.2104 42.0241 66.2914 42.0241C66.3723 42.0241 66.451 42.0407 66.5278 42.0649C66.6086 42.0915 66.6856 42.1287 66.7567 42.1755C66.7799 42.1904 66.8039 42.2026 66.8266 42.2198C66.8859 42.2652 66.9426 42.3188 66.9973 42.3784C67.0544 42.4437 67.1072 42.5126 67.1556 42.5846C67.2819 42.7741 67.3884 43.0023 67.4665 43.2606V43.2611L66.2914 37.8788L65.1163 43.2609Z" fill="#909393"/>
<path d="M50.7177 44.2495C50.7162 44.1413 50.7092 44.0343 50.6971 43.9291C50.6968 43.9278 50.6963 43.9262 50.6963 43.9247C50.6841 43.8218 50.6668 43.7196 50.6445 43.6184L50.6425 43.6107C50.6203 43.512 50.5934 43.4144 50.5618 43.3183L50.5592 43.3119C50.5277 43.2166 50.4914 43.123 50.4504 43.0314C50.4499 43.0296 50.4486 43.0278 50.4478 43.0257C50.1203 42.2969 49.5261 41.7212 48.7872 41.417L48.7782 41.4136C48.5985 41.3403 48.4122 41.2841 48.2218 41.2458C48.2169 41.245 48.2123 41.2447 48.2074 41.2437C48.011 41.2049 47.8113 41.1853 47.6111 41.1852C47.4103 41.1852 47.2151 41.2058 47.0251 41.2422L47.005 41.2453C46.816 41.2829 46.6337 41.3381 46.4587 41.4082L46.4447 41.4136C46.2677 41.4854 46.0978 41.5735 45.9371 41.6768C45.7765 41.7805 45.6257 41.8983 45.487 42.0285L45.4836 42.0391L45.472 42.0416C45.2499 42.253 45.0597 42.4957 44.9077 42.762L44.902 42.7715C44.8556 42.8532 44.8136 42.9383 44.7749 43.0249C44.7708 43.0342 44.7656 43.043 44.7617 43.0523C44.7264 43.1324 44.696 43.2155 44.6676 43.299C44.6622 43.3155 44.655 43.331 44.6499 43.3472C44.6251 43.4253 44.605 43.5055 44.5859 43.5857C44.581 43.6089 44.5735 43.631 44.5686 43.654C44.5521 43.7334 44.5408 43.8146 44.5302 43.8961C44.5271 43.9211 44.5217 43.9451 44.5191 43.9701C44.4868 44.2788 44.501 44.5906 44.5614 44.8951C44.5619 44.899 44.5622 44.9034 44.5632 44.9075C44.6022 45.1016 44.6594 45.2888 44.7329 45.468C44.7339 45.4705 44.7344 45.4731 44.7357 45.4754C44.8844 45.8352 45.0992 46.164 45.3689 46.4448C45.5803 46.6652 45.8237 46.8542 46.0913 47.0053L46.0952 47.0076C46.1787 47.0545 46.2651 47.0968 46.353 47.136C46.3602 47.1391 46.3671 47.1432 46.3746 47.1463C46.4561 47.1819 46.5404 47.2126 46.6252 47.2412C46.6397 47.2461 46.6536 47.2523 46.668 47.2569C46.7464 47.2819 46.8273 47.302 46.9083 47.3206C46.9302 47.3258 46.9513 47.333 46.9735 47.3376C47.0522 47.3539 47.1331 47.3649 47.2146 47.3755C47.2391 47.3784 47.2633 47.384 47.2883 47.3866C48.0144 47.4631 48.7442 47.2811 49.3493 46.8725C49.6803 46.6488 49.9654 46.3638 50.1892 46.0328C50.5359 45.5194 50.7209 44.9139 50.7203 44.2944C50.7203 44.2869 50.7193 44.28 50.7193 44.273C50.719 44.265 50.718 44.2575 50.7177 44.2495ZM47.6111 43.8853C47.4577 43.8852 47.3058 43.855 47.1641 43.7963C47.0224 43.7376 46.8937 43.6515 46.7852 43.5431C46.6768 43.4346 46.5907 43.3058 46.5321 43.1641C46.4734 43.0224 46.4432 42.8705 46.4432 42.7171C46.4432 42.5637 46.4734 42.4118 46.5322 42.2701C46.5909 42.1284 46.6769 41.9997 46.7854 41.8912C46.8939 41.7828 47.0226 41.6968 47.1644 41.6381C47.3061 41.5794 47.458 41.5492 47.6113 41.5492C47.9211 41.5492 48.2182 41.6723 48.4372 41.8914C48.6562 42.1105 48.7793 42.4076 48.7792 42.7174C48.7792 43.0271 48.6561 43.3242 48.437 43.5432C48.218 43.7623 47.9209 43.8853 47.6111 43.8853Z" fill="black"/>
<path d="M47.6111 41.5493C47.3013 41.5493 47.0043 41.6723 46.7852 41.8913C46.5662 42.1103 46.4432 42.4074 46.4432 42.7171C46.4432 43.0269 46.5662 43.3239 46.7852 43.543C47.0043 43.762 47.3013 43.885 47.6111 43.885C47.9208 43.885 48.2179 43.762 48.4369 43.543C48.6559 43.3239 48.779 43.0269 48.779 42.7171C48.779 42.4074 48.6559 42.1103 48.4369 41.8913C48.2179 41.6723 47.9208 41.5493 47.6111 41.5493Z" fill="white"/>
<path d="M45.472 42.0417L45.4836 42.0391L45.487 42.0285L47.6283 35.4795V33.9469L47.6281 33.9296C46.4194 33.6793 45.1885 33.5524 43.9543 33.5506C43.5353 33.5506 43.1197 33.5684 42.7067 33.5965C42.6466 33.6006 42.5863 33.6042 42.526 33.6089C40.3766 33.7721 38.26 34.3323 36.3001 35.2269C34.6194 35.9944 33.0578 37.0053 31.654 38.2039L31.6517 38.2062C31.2761 38.5278 30.9123 38.8629 30.5609 39.2109C30.4949 39.2753 30.4279 39.3393 30.3626 39.4047C30.0305 39.7397 29.7092 40.0853 29.3992 40.4409C29.3319 40.5185 29.2657 40.5976 29.1991 40.676C28.8863 41.043 28.5852 41.4199 28.2963 41.806C28.2723 41.8385 28.2499 41.8725 28.2261 41.905C27.9521 42.2793 27.6893 42.6617 27.4383 43.0518C27.389 43.1278 27.3385 43.2028 27.2903 43.2797C27.0866 43.6027 26.8971 43.9345 26.7089 44.2671H36.4638L45.472 42.0417Z" fill="#BBBCBD"/>
<path d="M53.7073 41.3048C53.7272 41.0493 53.7434 40.7941 53.7566 40.5383C53.7743 40.1923 53.7865 39.8458 53.7932 39.4996C53.7983 39.2307 53.7976 38.9615 53.7963 38.6927C53.7963 38.615 53.7981 38.5374 53.7973 38.4596C53.7893 37.7653 53.7637 37.0713 53.7207 36.3783L53.7148 36.3744L53.7122 36.3695C53.4545 36.2214 53.1964 36.0739 52.938 35.9271L52.92 35.9168L52.7181 35.8026L52.7145 35.8005L52.5745 35.7221L52.5469 35.7067C52.5131 35.6879 52.4792 35.6694 52.4451 35.6512C51.9966 35.4185 51.5392 35.2036 51.0738 35.007C49.9644 34.5385 48.4701 34.1278 47.6284 33.9296V35.4795L49.7509 42.0391L49.7532 42.0445C49.9724 42.2533 50.1609 42.4933 50.3119 42.7578C50.3614 42.8445 50.4068 42.9342 50.4478 43.0257C50.4488 43.0278 50.4499 43.0296 50.4504 43.0314C50.4914 43.1226 50.5275 43.2162 50.5592 43.3119L50.5617 43.3183C50.5932 43.414 50.6203 43.5114 50.6424 43.6107L50.6445 43.6184C50.6667 43.7187 50.684 43.8211 50.6963 43.9247C50.6963 43.9262 50.6968 43.9278 50.6971 43.9291C50.7092 44.0343 50.7162 44.1413 50.7177 44.2495L50.7257 44.2671H53.3247C53.4991 43.3133 53.6245 42.3511 53.7004 41.3845C53.7022 41.3579 53.7053 41.3314 53.7073 41.3048Z" fill="#E3DDDB"/>
<path d="M57.1063 38.9855C57.1045 38.9884 57.1032 38.9917 57.1017 38.9946L57.1063 38.9855Z" fill="#FCB03F"/>
<path d="M45.4869 42.0285C45.6266 41.8976 45.7779 41.7797 45.9389 41.6761C46.099 41.5732 46.2684 41.4853 46.4447 41.4136C46.4494 41.4116 46.4543 41.4103 46.4586 41.4082C46.6353 41.3372 46.8182 41.2826 47.0049 41.2453L47.025 41.2422C47.2181 41.2047 47.4144 41.1856 47.6111 41.1852C47.8152 41.1852 48.0143 41.2058 48.2074 41.2437C48.2123 41.2448 48.2169 41.245 48.2218 41.2458C48.4153 41.2846 48.6046 41.342 48.7872 41.417C49.1452 41.5646 49.4728 41.7774 49.7532 42.0445L49.7509 42.0391L47.6283 35.4796L45.4869 42.0285Z" fill="#909393"/>
<path d="M44.7328 45.468C44.6585 45.287 44.6017 45.0993 44.5632 44.9075C44.5622 44.9033 44.5619 44.899 44.5614 44.8951C44.501 44.5906 44.4867 44.2788 44.5191 43.9701C44.5217 43.9451 44.5271 43.9211 44.5302 43.8961C44.5408 43.8146 44.5521 43.7334 44.5686 43.654C44.5735 43.631 44.581 43.6089 44.5859 43.5857C44.6049 43.5055 44.6251 43.4253 44.6498 43.3472C44.6552 43.3309 44.6619 43.3155 44.6676 43.299C44.696 43.2154 44.7264 43.1324 44.7617 43.0523C44.7656 43.043 44.7707 43.0342 44.7748 43.0249C44.8135 42.9383 44.8555 42.8532 44.9019 42.7715L44.9076 42.762C45.0597 42.4957 45.2498 42.253 45.472 42.0416L36.4637 44.2671H36.4465L45.3688 46.4448C45.0992 46.164 44.8844 45.8352 44.7357 45.4754C44.7344 45.4731 44.7339 45.4705 44.7328 45.468Z" fill="#676A6A"/>
<path d="M65.0016 43.7804C65.0072 43.7401 65.0158 43.7025 65.0227 43.6633C65.0451 43.5352 65.072 43.4104 65.1065 43.2918C65.1104 43.2784 65.1119 43.2632 65.116 43.25L66.2914 37.8679L66.2912 34.7992C65.3308 34.0059 64.3024 33.5723 63.2317 33.5723C61.8787 33.5723 60.6172 34.3194 59.6739 35.2421C58.6416 36.252 57.8439 37.5225 57.1989 38.8046C57.1692 38.8636 57.1388 38.9203 57.1094 38.9796C57.3082 39.1518 57.5049 39.3264 57.699 39.504C58.1377 39.9068 58.5689 40.3177 58.9922 40.7366C59.1897 40.9315 59.3836 41.1306 59.578 41.3288C59.7842 41.5389 59.9907 41.7485 60.1939 41.962C60.5654 42.3522 60.9317 42.7474 61.2927 43.1474C61.6025 43.4891 61.9088 43.8338 62.2118 44.1815L62.2123 44.182C62.2631 44.2351 62.2987 44.2733 62.3123 44.2888H64.9632C64.9632 44.2674 64.9675 44.2478 64.9678 44.2264C64.9704 44.0732 64.9809 43.9237 65.0016 43.7804ZM57.1092 38.9938L57.1063 38.9858L57.1017 38.9946L57.1133 39.0059C57.112 39.0018 57.1106 38.9978 57.1092 38.9938Z" fill="#E3DDDB"/>
<path d="M25.1108 47.654L25.1345 47.5947C25.4904 46.6711 25.9009 45.7695 26.3637 44.8946C26.4354 44.7585 26.5055 44.6219 26.5798 44.487C26.6208 44.4125 26.6672 44.3414 26.7089 44.2671C26.8972 43.9345 27.0866 43.6027 27.2903 43.2797C27.3385 43.2026 27.3891 43.1278 27.4383 43.0518C27.6894 42.6617 27.9521 42.2793 28.2262 41.905C28.2499 41.8726 28.2723 41.8385 28.2963 41.806C28.5852 41.4199 28.8863 41.0431 29.1992 40.6761C29.2657 40.5977 29.3317 40.5188 29.3992 40.4409C29.7092 40.0853 30.0305 39.7398 30.3627 39.4048C30.4282 39.3393 30.4949 39.2754 30.5609 39.2109C30.9123 38.863 31.2761 38.5278 31.6517 38.2062L31.654 38.2039C33.1367 33.2374 37.9243 30.1854 43.2922 30.1854C45.4527 30.1854 47.6013 30.808 49.4426 31.9344C51.3313 33.0897 52.6191 34.2184 53.6189 36.1914L53.6339 36.2211C53.6591 36.2711 53.6875 36.319 53.7122 36.3695L53.7148 36.3744L53.7207 36.3783C54.5603 36.8978 55.3601 37.4791 56.1135 38.1173C56.3669 38.3311 56.6155 38.5507 56.8591 38.7757C56.9395 38.8494 57.0223 38.9196 57.1017 38.9946C57.1032 38.9915 57.1045 38.9884 57.1063 38.9856C57.1071 38.9834 57.1081 38.9814 57.1092 38.9794C57.1365 38.9234 57.1633 38.8665 57.1909 38.8113C57.9473 34.0374 60.3506 31.4342 62.8344 31.4342C64.7066 31.4342 66.0676 32.5506 67.0955 35.5556L67.1061 35.5879L67.1087 35.5915C67.4118 35.9221 67.6947 36.2706 67.9561 36.6351L67.9556 36.6348C67.961 36.6421 67.9667 36.6488 67.9721 36.6562C67.9868 36.6998 67.9994 36.7447 68.0136 36.7882L67.9749 36.6315C64.885 27.4838 56.2329 20.8977 46.042 20.8977C33.2597 20.8977 22.8977 31.2597 22.8977 44.042C22.8977 46.5619 23.3004 48.9879 24.0481 51.2453L24.0512 51.2322C24.314 50.0145 24.6682 48.8184 25.1108 47.654Z" fill="#525353"/>
<path d="M68.3206 44.2978L67.5134 45.2009V45.2006L67.5116 45.2065C67.4809 45.3254 67.4433 45.4363 67.4018 45.5433C67.391 45.5714 67.3788 45.5979 67.367 45.6252C67.336 45.6989 67.3014 45.7709 67.2631 45.841C67.2432 45.8776 67.2236 45.9148 67.2022 45.949C67.1687 46.0027 67.1326 46.0514 67.096 46.0994C67.0455 46.1656 66.9896 46.2276 66.929 46.2847C66.905 46.3072 66.8818 46.3316 66.8565 46.3518C66.796 46.3998 66.7305 46.4412 66.6611 46.4752C66.5453 46.5317 66.4239 46.5647 66.2976 46.5647C65.5641 46.5647 64.9693 45.5458 64.9693 44.2887H62.3043L62.3059 44.2908C62.8066 44.8695 63.2994 45.455 63.7842 46.047C64.2501 46.6163 64.7102 47.1903 65.1645 47.7689L65.2315 47.8538C65.662 48.4033 66.0886 48.9559 66.5113 49.5115L66.6345 49.6724C67.0835 50.2634 67.5296 50.8567 67.9728 51.4521C68.7528 49.1433 69.1624 46.7256 69.1866 44.2887L68.4374 44.2604L68.3206 44.2978Z" fill="white"/>
<path d="M42.526 33.6089C42.5863 33.6043 42.6467 33.6006 42.7067 33.5965C43.1219 33.5671 43.538 33.5518 43.9543 33.5506C45.2093 33.5506 46.4355 33.685 47.6281 33.9296C48.4699 34.1279 49.9644 34.5386 51.0738 35.007C51.5392 35.2036 51.9966 35.4186 52.4451 35.6513L52.5469 35.7067L52.5745 35.7222C52.616 35.7454 52.6614 35.7704 52.7145 35.8006L52.7181 35.8026L52.92 35.9168L52.938 35.9271C53.2232 36.0888 53.5387 36.27 53.6594 36.3391L53.6903 36.3569L53.7122 36.3696C53.6875 36.319 53.6591 36.2711 53.6339 36.2211L53.6189 36.1914C52.6191 34.2184 51.08 32.5261 49.1912 31.3708C47.3499 30.2444 45.2013 29.6218 43.0406 29.6218C37.6729 29.6218 33.1367 33.2374 31.6541 38.2039C33.0578 37.0053 34.6194 35.9944 36.3001 35.2269C38.26 34.3323 40.3766 33.7721 42.526 33.6089Z" fill="black"/>
<path d="M67.9721 36.6562C67.9667 36.6487 67.961 36.642 67.9556 36.6348L67.9561 36.6351C67.6947 36.2706 67.4117 35.9221 67.1087 35.5914L67.1012 35.5824C66.9721 35.4422 66.8387 35.3059 66.7013 35.1738C66.6505 35.1251 66.5979 35.0825 66.5466 35.0359C66.4618 34.9588 66.3775 34.8791 66.2914 34.8085V37.8788L67.4668 43.2614C67.4796 43.3031 67.4951 43.3421 67.5065 43.3854L68.3206 44.2978L68.3286 44.2888H69.1807C69.1817 44.2099 69.1866 44.132 69.1866 44.0529V44.0516C69.1862 41.5832 68.7902 39.1309 68.0136 36.788C67.9994 36.7444 67.9868 36.6998 67.9721 36.6562Z" fill="#BBBCBD"/>
<path d="M59.6739 35.2421C60.6172 34.3194 61.8787 33.5723 63.2317 33.5723C64.3024 33.5723 65.3308 34.0059 66.2912 34.7992L66.2914 34.8085C66.3775 34.8791 66.4618 34.9588 66.5467 35.0359C66.598 35.0825 66.6506 35.1251 66.7013 35.1738C66.8387 35.3059 66.9721 35.4422 67.1012 35.5824L67.1087 35.5915C67.1081 35.5903 67.1073 35.5893 67.1064 35.5884L67.1061 35.5881L67.0955 35.5556C66.0676 32.5506 64.4091 30.5981 62.5374 30.5981C60.0534 30.5981 57.9473 34.0374 57.1909 38.8113L57.1989 38.8046C57.8439 37.5225 58.6416 36.252 59.6739 35.2421ZM56.3174 64.5827C56.3174 64.5827 55.983 64.3177 55.5584 63.8291C55.3609 63.6032 55.1767 63.3659 55.007 63.1184C54.9528 63.0395 54.8992 62.9575 54.8458 62.8729C54.6852 62.619 54.5571 62.3099 54.4158 62.0044C54.2523 61.6506 54.2518 61.4153 54.158 61.0858C54.0889 60.8431 54.0341 60.5967 53.9938 60.3476C53.9286 59.9448 53.9025 59.5366 53.9156 59.1287C53.9229 58.8933 53.9471 58.6497 53.9824 58.4017C54.0175 58.1554 54.0654 57.9111 54.126 57.6698C54.3132 56.9213 54.6367 56.1242 55.1415 55.2827L55.2699 54.9944C55.4349 54.7196 55.4715 54.7317 55.6283 54.4669C57.8362 50.7408 59.0273 47.9231 58.4446 43.5847C58.3807 43.1402 58.3082 42.697 58.227 42.2554C58.1763 42.5755 58.1226 42.8951 58.0659 43.2142C58.044 43.3132 57.9839 43.4207 57.9612 43.488C57.0022 46.3265 55.4924 48.4145 53.3201 50.7722C53.0176 51.0992 52.7115 51.4228 52.4018 51.7429C51.8485 52.3149 51.2894 52.8812 50.7247 53.4419C50.4896 53.6757 50.2498 53.9129 50.0059 54.1547C49.7819 54.3765 49.5032 54.8506 49.1706 55.1999C48.9654 55.7746 48.7321 56.4227 48.5348 57.1044C48.4459 57.0706 48.3611 57.0404 48.2706 57.0054C44.0507 55.3732 41.2253 53.1923 41.2253 53.1923C41.2253 53.1923 43.3992 56.0228 47.0617 58.6799C47.3984 58.9239 47.7477 59.15 48.1082 59.3574C47.9571 61.7489 49.0121 64.0447 53.7741 64.7294C54.5793 64.8452 55.4037 64.8398 56.2342 64.7462C56.2259 64.7214 56.2806 64.722 56.2762 64.7083C56.2715 64.6944 56.3205 64.6578 56.3205 64.6578" fill="black"/>
<path d="M53.7702 58.4269C57.9978 59.1091 64.2547 58.9972 70.75 55.9561C70.9065 55.8828 71.079 56.0757 71.2355 55.9989C71.2355 55.9989 66.7962 60.533 61.4945 63.0964C61.3396 63.1712 61.1867 63.2509 61.0302 63.322C60.518 63.5561 59.9969 63.7601 59.4738 63.9483C58.448 64.3169 57.4085 64.5967 56.3765 64.7258C56.329 64.732 56.2816 64.741 56.2341 64.7462C56.2276 64.7267 56.2212 64.7072 56.2148 64.6877L56.2078 64.6663C56.2078 64.6663 55.8732 64.401 55.4486 63.9124C55.2509 63.6867 55.0668 63.4493 54.8974 63.2016C54.6608 62.858 54.4537 62.4949 54.2784 62.1162C54.1302 61.7966 54.0072 61.4658 53.9105 61.127C53.7286 60.4912 53.6467 59.8309 53.6679 59.17C53.6767 58.9266 53.699 58.6839 53.7347 58.4429L53.7702 58.4269Z" fill="#9F2254"/>
<path d="M50.7402 53.6138C51.305 53.0532 51.8642 52.4869 52.4175 51.9149C52.7272 51.5947 53.0333 51.2711 53.3358 50.9442C55.5079 48.5865 57.1025 46.3801 58.0618 43.5416C58.0842 43.4743 58.1069 43.3856 58.1288 43.2859L58.1391 43.2397C58.1615 43.1338 58.1835 43.0159 58.2054 42.8832C58.2141 42.7916 58.5011 42.607 58.5091 42.5212C58.2685 41.2852 57.7142 39.9859 57.1092 38.9938C57.1106 38.9978 57.112 39.0018 57.1133 39.0059L57.1017 38.9946C57.0223 38.9196 56.9395 38.8494 56.8591 38.7757C56.6155 38.5507 56.3669 38.3311 56.1135 38.1172C55.3601 37.4791 54.5603 36.8979 53.7207 36.3783C53.763 37.0728 53.7901 37.7666 53.7973 38.4596C53.7983 38.5375 53.7963 38.6151 53.7963 38.6927C53.7976 38.9616 53.7983 39.2307 53.7932 39.4996C53.7865 39.846 53.7743 40.1923 53.7566 40.5384C53.7434 40.7941 53.7272 41.0493 53.7073 41.3048C53.7053 41.3314 53.7022 41.3579 53.7004 41.3845C53.6245 42.3512 53.4991 43.3133 53.3247 44.2671L53.0195 45.7106C52.3819 48.2954 51.0869 50.64 50.0221 53.0608C49.7398 53.7028 49.472 54.352 49.2371 55.0132L49.1706 55.1999C49.4501 54.9049 49.7338 54.6138 50.0214 54.3267C50.2655 54.0851 50.5053 53.8477 50.7402 53.6138Z" fill="#FCB03F"/>
<path d="M36.7698 67.5158C38.319 66.8306 39.7527 66.4003 41.4568 66.0643C41.4483 65.6954 41.4291 65.3267 41.3991 64.9588C42.1271 63.0743 42.7984 61.1684 43.4121 59.2437C42.3264 59.3494 41.2476 59.5161 40.1806 59.743C39.3899 59.9109 38.6098 60.1218 37.8361 60.3548C37.2145 60.542 36.6012 60.757 35.9927 60.9857L38.3984 61.5683L36.4627 67.644L36.7698 67.5158Z" fill="#525353"/>
<path d="M66.5113 49.5115C66.0886 48.9559 65.662 48.4033 65.2315 47.8538L65.1645 47.769C64.7046 47.1832 64.2387 46.6021 63.7669 46.0259C63.2876 45.441 62.8006 44.8626 62.3059 44.2908C62.2747 44.2545 62.2435 44.2176 62.2118 44.1815C61.8041 43.7132 61.3901 43.2504 60.9701 42.7932C60.714 42.5137 60.4552 42.2366 60.1938 41.962C59.9902 41.7494 59.7849 41.5383 59.5779 41.3288C59.3835 41.1306 59.1897 40.9315 58.9922 40.7366C58.5687 40.3179 58.1376 39.9069 57.699 39.504C57.5047 39.3265 57.3081 39.1516 57.1091 38.9794C57.108 38.9814 57.1071 38.9834 57.1063 38.9856C57.5245 40.1875 58.0017 41.4044 58.2407 42.6578C58.3028 42.984 58.3541 43.3011 58.3959 43.611C58.9785 47.9492 57.5884 50.7818 55.3808 54.5079C55.2191 54.7803 55.0568 55.0522 54.8937 55.3237C54.3889 56.1657 54.0656 56.9626 53.8782 57.711C53.8177 57.9523 53.7698 58.1966 53.7346 58.4429C58.0641 59.1416 64.5743 59.2718 71.2354 55.9989C71.2354 55.9989 69.9291 54.0789 67.9635 51.4397C67.5234 50.8485 67.0804 50.2593 66.6345 49.6724C66.5938 49.6185 66.5523 49.5649 66.5113 49.5115Z" fill="#DF0067"/>
<path d="M36.2328 68.7299L38.3984 61.5684L35.9928 60.9857C35.4539 61.1881 34.92 61.4039 34.393 61.6385L32.2483 68.7299L34.6426 68.7673L36.2328 68.7299Z" fill="#AA9678"/>
<path d="M37.7552 65.6315C37.9666 65.7127 38.1816 65.7859 38.3961 65.861C40.8531 66.7232 43.4384 67.1631 46.0423 67.1621C49.0044 67.1638 51.9392 66.5951 54.6862 65.4869C54.8275 65.4301 54.966 65.3678 55.1057 65.3082C55.3323 65.2119 55.5574 65.1122 55.7809 65.0089C55.9805 64.9161 56.18 64.824 56.3765 64.7258C56.329 64.732 56.2816 64.741 56.2341 64.7462C55.4037 64.8398 54.5792 64.8452 53.7741 64.7294C49.012 64.0447 47.9571 61.7488 48.1081 59.3574C47.7477 59.15 47.3984 58.9239 47.0617 58.6798C43.3992 56.0228 41.2253 53.1923 41.2253 53.1923C41.2253 53.1923 44.0507 55.3731 48.2706 57.0054C48.3611 57.0404 48.4459 57.0706 48.5348 57.1043C48.7321 56.4227 48.9654 55.7746 49.1706 55.1999L49.2371 55.0132C49.472 54.3519 49.7398 53.7028 50.0221 53.0608C51.0869 50.64 52.3819 48.2954 53.0195 45.7106L53.3247 44.2671H50.7203L50.72 44.2673L50.7203 44.2725L50.7193 44.273C50.7193 44.28 50.7203 44.2869 50.7203 44.2944C50.7209 44.9139 50.5359 45.5194 50.1892 46.0328C49.8513 46.5322 49.3762 46.9233 48.8213 47.159C48.3378 47.3636 47.8103 47.4419 47.2883 47.3866C47.2633 47.384 47.2393 47.3786 47.2146 47.3755C47.1331 47.365 47.0521 47.3539 46.9735 47.3376C46.9513 47.3327 46.9302 47.3258 46.9083 47.3206C46.8273 47.3021 46.7464 47.2819 46.668 47.2569C46.6536 47.252 46.6397 47.2461 46.6252 47.2412C46.5404 47.2126 46.4561 47.1819 46.3746 47.1463C46.3671 47.1432 46.3602 47.1394 46.353 47.136C46.2651 47.0972 46.1791 47.0544 46.0951 47.0076L46.0913 47.0053C45.8244 46.8547 45.581 46.6659 45.3689 46.4448L36.4465 44.2671H26.7089C26.6672 44.3413 26.6208 44.4125 26.5798 44.487C26.5055 44.6218 26.4354 44.7587 26.3637 44.8946C26.1244 45.3466 25.8992 45.8059 25.6883 46.2718C25.4911 46.7074 25.3064 47.1485 25.1345 47.5947L25.1108 47.654C24.6682 48.8184 24.314 50.0145 24.0511 51.2322C25.5841 55.9078 28.5667 59.9256 32.4656 62.7574C32.5791 62.8396 32.6987 62.9129 32.8137 62.9933C33.4735 63.4566 34.157 63.885 34.8615 64.2769C35.7933 64.7953 36.7603 65.2479 37.7552 65.6315Z" fill="white"/>
<path d="M61.1026 71.1667C61.0402 70.5478 61.0079 69.9263 61.0057 69.3043C61.0057 69.1232 60.9338 68.9495 60.8058 68.8215C60.6777 68.6934 60.5041 68.6214 60.323 68.6213H31.677C31.4958 68.6214 31.3222 68.6934 31.1941 68.8214C31.066 68.9495 30.9941 69.1232 30.994 69.3043C30.994 69.9313 30.9571 70.5516 30.8971 71.1667C30.8303 71.8428 30.7271 72.5148 30.588 73.1797C31.0033 73.3994 31.422 73.6131 31.8479 73.8157C32.1327 72.5729 32.2995 71.3058 32.346 70.0316C32.3467 70.0169 32.3483 70.0019 32.3488 69.9872H59.6512C59.6517 70.0019 59.6532 70.0169 59.6537 70.0316C59.7004 71.3058 59.8673 72.5728 60.1521 73.8157C60.5765 73.6127 60.9966 73.4006 61.412 73.1797C61.2729 72.5147 61.1696 71.8428 61.1026 71.1667Z" fill="#8B7460"/>
</g>
<defs>
<clipPath id="clip0_28_4">
<rect width="66" height="66" fill="white" transform="translate(13 11)"/>
</clipPath>
</defs>
</svg>
