<svg width="90" height="87" viewBox="0 0 90 87" fill="none" xmlns="http://www.w3.org/2000/svg">
<rect width="90" height="86.1207" rx="25" fill="#15243A"/>
<g clip-path="url(#clip0_28_10)">
<path d="M66.7975 19.8741C66.749 19.5823 66.5108 19.3585 66.2159 19.3307C65.9839 19.2925 60.8843 18.9429 60.8843 18.9429L56.9965 15.0551C56.6459 14.6673 55.8704 14.7808 55.5775 14.8612C55.5394 14.8612 54.802 15.0932 53.5955 15.4851C52.4229 12.0923 50.347 8.98206 46.6902 8.98206H46.3777C45.33 7.62391 44.0471 7 42.9643 7C34.4503 7.03816 30.3934 17.6559 29.1105 23.0813L23.1602 24.9066C21.3349 25.4883 21.2678 25.5305 21.0224 27.2713L16.0033 65.9617L53.6109 73L73.9915 68.6069C73.9915 68.5687 66.8346 20.2433 66.7975 19.8741ZM51.5103 16.1369C50.5646 16.4493 49.4859 16.7608 48.3237 17.1114V16.4102C48.3581 14.6603 48.0959 12.9172 47.5482 11.2549C49.454 11.5478 50.7348 13.6856 51.5113 16.1358L51.5103 16.1369ZM45.2526 11.7046C45.8745 13.5381 46.1632 15.4686 46.1045 17.4043V17.7549L39.5302 19.7793C40.8172 14.9736 43.1901 12.5997 45.2526 11.7046ZM42.7261 9.33991C43.115 9.34818 43.4931 9.46967 43.814 9.6895C41.0709 10.9662 38.171 14.1919 36.9274 20.6486L31.7247 22.2429C33.1922 17.3434 36.6159 9.33063 42.723 9.33063L42.7261 9.33991Z" fill="#95BF47"/>
<path d="M66.2159 19.3307C65.9839 19.2925 60.8843 18.9429 60.8843 18.9429L56.9965 15.0551C56.8521 14.9087 56.6562 14.8251 56.4531 14.8231L53.6151 73L73.9956 68.6069L66.7975 19.9133C66.7742 19.7675 66.7054 19.6327 66.6009 19.5283C66.4965 19.4238 66.3617 19.355 66.2159 19.3317V19.3307Z" fill="#5E8E3E"/>
<path d="M46.6912 30.6053L44.1605 38.0736C42.6312 37.3332 40.9595 36.9351 39.26 36.9052C35.2918 36.9052 35.0979 39.3926 35.0979 40.0175C35.0979 43.4186 44.0038 44.7242 44.0038 52.736C44.0038 59.0369 39.9974 63.0794 34.6194 63.0794C28.1638 63.0794 24.8566 59.073 24.8566 59.073L26.5736 53.3495C26.5736 53.3495 29.9561 56.268 32.8364 56.268C33.1807 56.2811 33.5241 56.2242 33.8458 56.1008C34.1675 55.9774 34.4608 55.79 34.708 55.55C34.9552 55.3099 35.1511 55.0222 35.2839 54.7043C35.4166 54.3863 35.4835 54.0447 35.4805 53.7002C35.4805 49.2245 28.1689 49.0317 28.1689 41.7191C28.1689 35.5708 32.6013 29.5813 41.5071 29.5813C45.0072 29.6329 46.6819 30.6022 46.6819 30.6022L46.6912 30.6053Z" fill="white"/>
</g>
<defs>
<clipPath id="clip0_28_10">
<rect width="66" height="66" fill="white" transform="translate(12 7)"/>
</clipPath>
</defs>
</svg>
